<svg width="280" height="280" viewBox="0 0 280 280" fill="none" xmlns="http://www.w3.org/2000/svg" role="img" aria-label="Sero">
<path d="M57.6824 73.6652C57.6824 65.17 64.5692 58.2833 73.0644 58.2833H80.7554C89.2506 58.2833 96.1373 65.17 96.1373 73.6652V206.335C96.1373 214.83 89.2506 221.717 80.7554 221.717H73.0644C64.5692 221.717 57.6824 214.83 57.6824 206.335V73.6652Z" fill="#ffffff"/>
<path d="M183.863 74.2661C183.863 65.7709 190.749 58.8841 199.245 58.8841H206.936C215.431 58.8841 222.318 65.7709 222.318 74.2661V206.936C222.318 215.431 215.431 222.318 206.936 222.318H199.245C190.749 222.318 183.863 215.431 183.863 206.936V74.2661Z" fill="#ffffff"/>
<path d="M168.841 106.352C168.841 122.28 155.929 135.193 140 135.193C124.071 135.193 111.159 122.28 111.159 106.352C111.159 90.4234 124.071 77.5107 140 77.5107C155.929 77.5107 168.841 90.4234 168.841 106.352Z" fill="#ffffff"/>
<path d="M168.841 183.262C168.841 199.19 155.929 212.103 140 212.103C124.071 212.103 111.159 199.19 111.159 183.262C111.159 167.333 124.071 154.421 140 154.421C155.929 154.421 168.841 167.333 168.841 183.262Z" fill="#ffffff"/>
</svg>
